<svg width="15" height="14" fill="none" xmlns="http://www.w3.org/2000/svg"><path opacity=".572" fill-rule="evenodd" clip-rule="evenodd" d="M13.125 12.188H1.875a.94.94 0 01-.938-.938.94.94 0 01.938-.938h11.25a.94.94 0 01.938.938.94.94 0 01-.938.938zm0-2.813H1.875a1.875 1.875 0 100 3.75h11.25a1.875 1.875 0 100-3.75zm0-1.875H1.875a.939.939 0 01-.938-.938.94.94 0 01.938-.937h11.25a.94.94 0 01.938.938.94.94 0 01-.938.937zm0-2.813H1.875a1.875 1.875 0 100 3.75h11.25a1.875 1.875 0 100-3.75zM1.875.938h11.25c.518 0 .938.422.938.938s-.42.938-.938.938H1.875a.939.939 0 01-.938-.938.94.94 0 01.938-.938zm0 2.813h11.25a1.875 1.875 0 100-3.75H1.875a1.875 1.875 0 100 3.75z" fill="#1F2937"/></svg>